<?xml version="1.0" encoding="UTF-8"?><svg id="Layer_2" xmlns="http://www.w3.org/2000/svg" viewBox="0 0 397.52 83.29"><g id="Designs"><g><path d="m392.64,19.24c-1.49-1.02-3.18-1.64-5.01-1.82-.38-.04-.76-.06-1.15-.06-2.61,0-5.01.91-6.9,2.43h-.75v.07c-.68-.36-1.37-.7-2.1-1-5.17-2.04-10.88-1.92-15.6.45-2.72,1.35-4.92,3.31-6.52,5.79-1.73,2.62-2.61,5.66-2.61,9.02,0,.18.01.35.02.53l-8.69-16.01h-7.87l-10.4,19.13v-19.13h-33.24v9.85l-13.19-9.85h-34.77v9.86l-13.21-9.86h-39.42v4.39c-1.61-1.13-3.34-2.09-5.19-2.83-2.03-.81-4.18-1.32-6.4-1.56h-21.34v3.82c-.76-.57-1.56-1.1-2.4-1.58h0c-3.71-2.14-7.8-3.22-12.16-3.22s-8.42,1.08-12.18,3.23c-1,.58-1.94,1.22-2.83,1.91-.8-.66-1.65-1.27-2.53-1.81-3.56-2.2-7.5-3.32-11.71-3.32s-8.13,1.11-11.73,3.33c-3.5,2.18-6.3,5.13-8.33,8.79-.29.52-.55,1.05-.79,1.58C89.22,13.36,73.54,0,54.93,0c-16.81,0-31.5,10.87-37.3,26.74-3.63-.8-8.2-.57-13.61,2.09-1.96.96-3.36,2.73-3.84,4.86-.48,2.12.02,4.31,1.37,6.02,1.39,1.75,2.97,3.23,4.67,4.43-1.3,2.82-2.03,6.44-1.54,11.05.23,2.17,1.41,4.09,3.25,5.29,1.85,1.21,4.12,1.51,6.21.84,1.67-.53,3.22-1.22,4.63-2.04,6.45,14.26,20.47,24.02,36.16,24.02,18.54,0,34.17-13.25,38.64-31.14.26.58.54,1.16.86,1.72,2.03,3.65,4.84,6.6,8.36,8.77,3.57,2.2,7.51,3.31,11.7,3.31s8.15-1.12,11.71-3.32c.88-.55,1.72-1.15,2.53-1.81.9.7,1.86,1.35,2.87,1.93,3.72,2.13,7.81,3.21,12.15,3.21s8.45-1.08,12.15-3.21c.85-.48,1.65-1.02,2.42-1.59v3.91h20.3c2.59-.18,5.08-.73,7.41-1.65,1.89-.74,3.63-1.71,5.23-2.84v4.49h51.1l-.02-11.08,13.8,11.08h34.17l-.02-11.1,5.58,4.48v21.18l6.36-.39c1.67-.1,3.24-.33,4.71-.68,4.06-1,7.67-2.89,10.73-5.63,2.52-2.26,4.43-4.87,5.7-7.78h9.24l3.4-6.16h6.77l3.4,6.16h16.97c1.61.36,3.26.56,4.93.56,4.96,0,9.16-1.53,12.47-4.53,2.44-2.18,5.36-6.21,5.36-13.04,0-3.61-.78-6.65-2.32-9.1.93.25,1.9.4,2.9.4,6.1,0,11.04-4.94,11.04-11.04,0-3.82-1.94-7.18-4.88-9.17Z" style="fill:#fff;"/><g><g><g><path d="m183.24,34.83c-.88-.88-1.98-1.6-3.3-2.18-1.29-.54-2.63-.81-4.03-.81h-2.76v19.99h2.76c1.4,0,2.74-.27,4.01-.81,1.25-.54,2.35-1.28,3.3-2.22.96-.96,1.69-2.04,2.2-3.23.51-1.17.76-2.43.76-3.76s-.26-2.54-.78-3.81c-.54-1.22-1.25-2.28-2.15-3.18Z" style="fill:none;"/><path d="m148.65,33.02c-1.53-.96-3.17-1.44-4.91-1.44s-3.41.48-4.91,1.44c-1.52.95-2.71,2.22-3.59,3.81-.88,1.58-1.32,3.24-1.32,4.99s.45,3.41,1.34,4.99c.9,1.61,2.09,2.89,3.57,3.84,1.5.96,3.14,1.44,4.91,1.44s3.39-.48,4.89-1.44c1.48-.95,2.68-2.22,3.59-3.84.88-1.6,1.32-3.26,1.32-4.99s-.44-3.41-1.32-4.99-2.07-2.85-3.57-3.81Z" style="fill:none;"/><path d="m119.05,50.63c-1.4.96-2.92,1.44-4.57,1.44s-3.17-.48-4.57-1.44c-1.4-.96-2.52-2.23-3.35-3.81-.83-1.6-1.25-3.26-1.25-4.99s.41-3.39,1.22-4.99c.83-1.58,1.95-2.85,3.35-3.81,1.43-.96,2.97-1.44,4.59-1.44s3.16.48,4.59,1.44c.65.42,1.33,1.05,2.03,1.88l5.6-5.79c-1.08-1.17-2.3-2.18-3.67-3.03-2.61-1.61-5.46-2.42-8.55-2.42s-5.93.81-8.55,2.42c-2.64,1.65-4.73,3.85-6.26,6.6-1.53,2.77-2.3,5.82-2.3,9.14s.77,6.35,2.3,9.12c1.53,2.75,3.62,4.95,6.26,6.57,2.62,1.61,5.47,2.42,8.55,2.42s5.95-.81,8.55-2.42c1.37-.85,2.61-1.87,3.72-3.08l-5.6-5.79c-.65.81-1.35,1.47-2.1,1.98Z" style="fill:#338ebe;"/><path d="m152.9,26.08c-2.8-1.61-5.86-2.42-9.17-2.42s-6.35.81-9.17,2.42c-2.84,1.65-5.07,3.85-6.7,6.6-1.65,2.8-2.47,5.85-2.47,9.14s.82,6.35,2.47,9.12c1.63,2.77,3.86,4.97,6.7,6.6,2.82,1.61,5.87,2.42,9.17,2.42s6.36-.81,9.17-2.42c2.82-1.61,5.04-3.81,6.67-6.6,1.65-2.77,2.47-5.81,2.47-9.12s-.82-6.34-2.47-9.14c-1.63-2.77-3.85-4.97-6.67-6.6Zm-.68,20.73c-.91,1.61-2.11,2.89-3.59,3.84-1.5.96-3.13,1.44-4.89,1.44s-3.41-.48-4.91-1.44c-1.48-.95-2.67-2.22-3.57-3.84-.9-1.58-1.34-3.24-1.34-4.99s.44-3.41,1.32-4.99c.88-1.6,2.08-2.87,3.59-3.81,1.5-.96,3.14-1.44,4.91-1.44s3.38.48,4.91,1.44c1.5.96,2.69,2.23,3.57,3.81s1.32,3.24,1.32,4.99-.44,3.39-1.32,4.99Z" style="fill:#338ebe;"/><path d="m189.67,29.42c-1.71-1.56-3.66-2.78-5.84-3.64-2.22-.88-4.59-1.32-7.14-1.32h-12.39v34.68h12.39c2.53,0,4.9-.44,7.11-1.32,2.23-.88,4.19-2.1,5.87-3.67,1.65-1.53,2.96-3.38,3.94-5.55.95-2.1,1.42-4.37,1.42-6.79s-.47-4.71-1.42-6.84c-.98-2.17-2.29-4.02-3.94-5.55Zm-4.25,16.16c-.51,1.19-1.24,2.26-2.2,3.23-.95.95-2.04,1.69-3.3,2.22-1.27.54-2.61.81-4.01.81h-2.76v-19.99h2.76c1.4,0,2.75.27,4.03.81,1.32.57,2.42,1.3,3.3,2.18.9.9,1.61,1.96,2.15,3.18.52,1.27.78,2.54.78,3.81,0,1.34-.25,2.59-.76,3.76Z" style="fill:#338ebe;"/><polygon points="197.24 59.18 219.26 59.18 219.26 51.87 205.74 51.87 205.74 45.18 214.59 45.18 212.61 37.87 205.74 37.87 205.74 31.86 219.26 31.86 219.26 24.5 197.24 24.5 197.24 59.18" style="fill:#338ebe;"/><polygon points="249.87 40.47 227.77 23.97 227.77 59.07 236.33 59.07 236.3 41.45 258.37 59.17 258.37 24.51 249.87 24.46 249.87 40.47"/><polygon points="262.8 59.14 271.31 59.17 271.31 24.51 262.8 24.51 262.8 59.14"/><polygon points="306.33 59.16 306.33 24.5 297.83 24.45 297.83 40.46 275.73 23.96 275.73 59.06 284.29 59.06 284.26 41.44 306.33 59.16"/><path d="m310.83,57.58h-.02c-.13.85-.24,1.4-.32,1.66-.52,1.56-1.4,2.89-2.64,3.98-1.22,1.11-2.7,1.89-4.42,2.35l-.07.02h-.1c-.11.02-.22.03-.32.05-.34.07-.7.12-1.08.17v7.43c1.34-.08,2.55-.25,3.64-.51,3.11-.77,5.83-2.19,8.16-4.28,2.33-2.09,3.93-4.52,4.79-7.31.31-.99.5-2.06.56-3.2h.05V24.51h-8.24v33.07Z"/><path d="m320.28,59.14h8.77l3.4-6.16h13.86l3.4,6.16h8.77l-19.09-35.17-19.11,35.17Zm15.69-12.56l3.42-6.16,3.4,6.16h-6.82Z"/><path d="m378.02,41.55c-1.27-1.48-2.77-2.57-4.5-3.25-1.71-.65-3.38-1.33-5.01-2.03-1.6-.68-2.4-1.61-2.4-2.79,0-.83.37-1.5,1.1-2,.7-.51,1.45-.76,2.25-.76,1.08,0,2.02.21,2.84.64.77.39,1.65,1.07,2.66,2.03l4.18-5.96c-1.32-1.27-2.86-2.26-4.62-2.98-1.73-.68-3.49-1.03-5.28-1.03-1.94,0-3.76.42-5.45,1.27-1.74.86-3.14,2.1-4.18,3.72-1.08,1.63-1.61,3.54-1.61,5.72,0,2.85.62,4.99,1.86,6.43,1.24,1.45,2.73,2.53,4.47,3.25l1.3.54,1.27.51c.95.39,1.78.74,2.49,1.05,1.61.7,2.42,1.65,2.42,2.84,0,1.01-.43,1.78-1.3,2.3-.88.54-1.8.81-2.76.81-2.4,0-4.33-.93-5.79-2.79l-4.59,6.55c1.42,1.37,3.06,2.4,4.94,3.08,1.86.68,3.78,1.03,5.77,1.03,3.44,0,6.27-1,8.48-3.01,2.23-1.99,3.35-4.84,3.35-8.55,0-2.9-.63-5.1-1.88-6.6Z"/></g><path d="m391.42,28.28c0,1.35-.48,2.5-1.43,3.47-.95.96-2.1,1.44-3.45,1.44s-2.5-.48-3.45-1.44c-.95-.96-1.43-2.12-1.43-3.47s.48-2.52,1.43-3.48c.95-.96,2.1-1.44,3.45-1.44s2.5.48,3.45,1.44c.95.96,1.43,2.12,1.43,3.48Zm-7.53-2.68c-.73.73-1.1,1.63-1.1,2.68s.37,1.94,1.1,2.67c.73.74,1.61,1.11,2.65,1.11s1.91-.37,2.65-1.11c.73-.73,1.1-1.62,1.1-2.67s-.37-1.94-1.1-2.68c-.74-.74-1.62-1.11-2.65-1.11s-1.92.37-2.65,1.11Zm.94,5.22v-5.04h1.41c.4,0,.76.05,1.06.16.31.1.54.27.7.5.17.24.25.54.25.9,0,.28-.07.53-.22.77-.14.24-.34.41-.59.51l1.26,2.2h-1.45l-1.17-2.26h-.02v2.25h-1.24Zm1.24-2.55c.21,0,.38-.03.52-.08.13-.04.24-.12.32-.23.08-.11.11-.25.11-.42,0-.27-.08-.44-.23-.54-.16-.09-.4-.14-.72-.14v1.41Z" style="fill:#221f1f;"/></g><g><path d="m54.93,36.33v10.96s.02,0,.02,0v-10.96s-.02,0-.02,0Z" style="fill:none;"/><path d="m83.97,48.69s.05,0,.08,0c0,0,0,0,0,0h-.08Z" style="fill:none;"/><path d="m25.86,34.59s-.79,2.77-.77,7.05h0c.03,1.94.24,4.28.78,7,0,0,11.91-1.36,29.05-1.35v-10.96c-8.56-.02-18.48-.46-29.07-1.74Z" style="fill:#d6c09a;"/><path d="m84.81,41.64h0c-.03-1.94-.24-4.28-.78-7,0,0-11.7,1.72-29.08,1.69v10.96c8.63,0,18.58.36,29.01,1.4h.08c.02-.08.78-2.83.76-7.04Z" style="fill:#e2d4b0;"/><path d="m54.93,6c-16.66,0-30.51,12.61-33.38,29.24-2.83-2.41-7.71-4.55-14.89-1.02-.67.33-.86,1.18-.41,1.75,1.49,1.88,5.02,5.48,10.17,5.55-3.16,1.84-6.57,5.57-5.77,13.03.08.79.9,1.29,1.67,1.04,2.54-.81,7.6-3.08,9.08-8.5,2.5,17.1,16.56,30.2,33.53,30.2,18.74,0,33.93-15.96,33.93-35.64S73.67,6,54.93,6Zm29.04,42.69c-10.43-1.05-20.38-1.4-29.01-1.4,0,0-.02,0-.02,0-17.14,0-29.05,1.35-29.05,1.35-.54-2.72-.75-5.06-.78-7h0c-.02-4.28.77-7.05.77-7.05,10.59,1.28,20.52,1.73,29.07,1.74,0,0,.02,0,.02,0,17.37.03,29.08-1.69,29.08-1.69.54,2.72.75,5.06.78,7h0c.02,4.22-.74,6.96-.76,7.04,0,0,0,0,0,0-.03,0-.05,0-.08,0Z"/><path d="m27.96,55.68s6.8,15.77,23.75,17.64c0,0,11.24,1.79,21.19-6.27,0,0-27.65,10.93-44.94-11.37Z" style="fill:#424244;"/><path d="m81.55,28.04s-6.8-15.77-23.75-17.64c0,0-11.24-1.79-21.19,6.27,0,0,27.65-10.93,44.94,11.37Z" style="fill:#424244;"/><g><path d="m45.51,40.88l-10.85-1.29c-.55-.07-.9.57-.55.99,4.22,5.05,9.37,2.73,11.63,1.3.43-.28.28-.93-.23-.99h0Z"/><path d="m64.14,41.87c2.26,1.43,7.4,3.75,11.62-1.3.35-.42,0-1.05-.55-.99l-10.85,1.29c-.51.06-.67.72-.23.99h0Z"/></g></g></g></g></g></svg>